<svg width="32" height="32" viewBox="0 0 32 32" fill="none" xmlns="http://www.w3.org/2000/svg">
<path d="M13.5139 26.4526C13.5139 26.8482 13.3966 27.2349 13.1769 27.5638C12.9571 27.8927 12.6447 28.149 12.2793 28.3004C11.9138 28.4518 11.5117 28.4914 11.1237 28.4142C10.7358 28.337 10.3794 28.1466 10.0997 27.8668C9.82 27.5871 9.62952 27.2308 9.55235 26.8428C9.47517 26.4549 9.51478 26.0527 9.66616 25.6873C9.81753 25.3218 10.0739 25.0095 10.4028 24.7897C10.7317 24.5699 11.1184 24.4526 11.5139 24.4526C12.0443 24.4526 12.5531 24.6634 12.9281 25.0384C13.3032 25.4135 13.5139 25.9222 13.5139 26.4526ZM24.5139 24.4526C24.1184 24.4526 23.7317 24.5699 23.4028 24.7897C23.0739 25.0095 22.8175 25.3218 22.6662 25.6873C22.5148 26.0527 22.4752 26.4549 22.5523 26.8428C22.6295 27.2308 22.82 27.5871 23.0997 27.8668C23.3794 28.1466 23.7358 28.337 24.1237 28.4142C24.5117 28.4914 24.9138 28.4518 25.2793 28.3004C25.6447 28.149 25.9571 27.8927 26.1769 27.5638C26.3966 27.2349 26.5139 26.8482 26.5139 26.4526C26.5139 25.9222 26.3032 25.4135 25.9281 25.0384C25.5531 24.6634 25.0443 24.4526 24.5139 24.4526ZM30.4702 8.74639L26.9039 20.3351C26.7171 20.9495 26.3373 21.4872 25.8208 21.8687C25.3042 22.2501 24.6785 22.4549 24.0364 22.4526H12.0227C11.3714 22.4502 10.7384 22.2368 10.2186 21.8445C9.69869 21.4522 9.3199 20.902 9.13892 20.2764L4.61642 4.45264H2.51392C2.2487 4.45264 1.99435 4.34728 1.80681 4.15974C1.61927 3.97221 1.51392 3.71785 1.51392 3.45264C1.51392 3.18742 1.61927 2.93307 1.80681 2.74553C1.99435 2.55799 2.2487 2.45264 2.51392 2.45264H4.61642C5.05068 2.45408 5.47279 2.59612 5.81958 2.85751C6.16637 3.1189 6.41918 3.48557 6.54017 3.90264L7.51392 7.85825L8.12517 9.45264L11.0614 19.7276L12.0227 20.4526L24.6309 20.257L29 7C29.1565 6.99994 29.8247 7.48925 29.9645 7.5597C30.1042 7.63014 30.2254 7.7324 30.3185 7.85825C30.4115 7.98409 30.4737 8.13001 30.5 8.28426C30.5264 8.43852 30.5161 8.5968 30.4702 8.74639ZM29 7.50069L24.6309 20.257L12.0227 20.4526L11.0614 19.7276C11.4207 20.251 11.2473 20.1202 11.4207 20.251C11.5941 20.3818 11.8054 20.4526 12.0227 20.4526H24.0364C24.2504 20.4527 24.4588 20.3842 24.6309 20.257C24.803 20.1299 24.9298 19.9509 24.9927 19.7464L29 7.50069Z" fill="black"/>
<path d="M25 9C25 9.19096 24.9241 9.37409 24.7891 9.50912C24.6541 9.64414 24.471 9.72 24.28 9.72H19.72V14.28C19.72 14.471 19.6441 14.6541 19.5091 14.7891C19.3741 14.9241 19.191 15 19 15C18.809 15 18.6259 14.9241 18.4909 14.7891C18.3559 14.6541 18.28 14.471 18.28 14.28V9.72H13.72C13.529 9.72 13.3459 9.64414 13.2109 9.50912C13.0759 9.37409 13 9.19096 13 9C13 8.80904 13.0759 8.62591 13.2109 8.49088C13.3459 8.35586 13.529 8.28 13.72 8.28H18.28V3.72C18.28 3.52904 18.3559 3.34591 18.4909 3.21088C18.6259 3.07586 18.809 3 19 3C19.191 3 19.3741 3.07586 19.5091 3.21088C19.6441 3.34591 19.72 3.52904 19.72 3.72V8.28H24.28C24.471 8.28 24.6541 8.35586 24.7891 8.49088C24.9241 8.62591 25 8.80904 25 9Z" fill="black"/>
</svg>
