<svg width="32" height="32" viewBox="0 0 32 32" fill="none" xmlns="http://www.w3.org/2000/svg">
<g clip-path="url(#clip0_152_2)">
<path d="M14.5 29.5C14.5 29.9945 14.3534 30.4778 14.0787 30.8889C13.804 31.3 13.4135 31.6205 12.9567 31.8097C12.4999 31.9989 11.9972 32.0484 11.5123 31.952C11.0273 31.8555 10.5819 31.6174 10.2322 31.2678C9.8826 30.9181 9.6445 30.4727 9.54804 29.9877C9.45157 29.5028 9.50108 29.0001 9.6903 28.5433C9.87952 28.0865 10.2 27.696 10.6111 27.4213C11.0222 27.1466 11.5055 27 12 27C12.663 27 13.2989 27.2634 13.7678 27.7322C14.2366 28.2011 14.5 28.837 14.5 29.5ZM25 27C24.5055 27 24.0222 27.1466 23.6111 27.4213C23.2 27.696 22.8795 28.0865 22.6903 28.5433C22.5011 29.0001 22.4516 29.5028 22.548 29.9877C22.6445 30.4727 22.8826 30.9181 23.2322 31.2678C23.5819 31.6174 24.0273 31.8555 24.5123 31.952C24.9972 32.0484 25.4999 31.9989 25.9567 31.8097C26.4135 31.6205 26.804 31.3 27.0787 30.8889C27.3534 30.4778 27.5 29.9945 27.5 29.5C27.5 28.837 27.2366 28.2011 26.7678 27.7322C26.2989 27.2634 25.663 27 25 27ZM31.4338 11.9412L28.0225 23.0287C27.8047 23.7458 27.3615 24.3735 26.7587 24.8186C26.1559 25.2638 25.4256 25.5028 24.6763 25.5H12.3663C11.6061 25.4975 10.8673 25.2488 10.2604 24.7911C9.65353 24.3334 9.21131 23.6914 9 22.9613L4.72625 8H3.5C3.10218 8 2.72064 7.84196 2.43934 7.56066C2.15804 7.27936 2 6.89782 2 6.5C2 6.10218 2.15804 5.72064 2.43934 5.43934C2.72064 5.15804 3.10218 5 3.5 5H5.1025C5.64543 5.00168 6.17318 5.17935 6.60657 5.50637C7.03997 5.83339 7.35565 6.29212 7.50625 6.81375L8.4175 10H30C30.2348 9.99998 30.4662 10.0551 30.6758 10.1608C30.8854 10.2666 31.0672 10.42 31.2067 10.6089C31.3462 10.7977 31.4394 11.0166 31.4788 11.248C31.5182 11.4794 31.5028 11.7169 31.4338 11.9412ZM27.9688 13H9.27375L11.885 22.1375C11.9149 22.242 11.9781 22.334 12.0649 22.3994C12.1517 22.4648 12.2575 22.5001 12.3663 22.5H24.6763C24.7833 22.5002 24.8875 22.4661 24.9737 22.4026C25.0599 22.3392 25.1234 22.2498 25.155 22.1475L27.9688 13Z" fill="black"/>
</g>
<defs>
<clipPath id="clip0_152_2">
<rect width="32" height="32" fill="white"/>
</clipPath>
</defs>
</svg>
