<svg width="33" height="33" viewBox="0 0 33 33" fill="none" xmlns="http://www.w3.org/2000/svg">
<path d="M28.6992 16.7872C28.6993 19.131 28.0129 21.4236 26.7249 23.3818C25.4369 25.34 23.6037 26.8782 21.4515 27.8064C19.2992 28.7346 16.9223 29.0122 14.6141 28.6049C12.306 28.1977 10.1676 27.1234 8.46297 25.5147C8.36743 25.4244 8.29061 25.3162 8.2369 25.1962C8.18319 25.0763 8.15363 24.9469 8.14991 24.8155C8.1462 24.6841 8.1684 24.5532 8.21525 24.4304C8.2621 24.3076 8.33269 24.1952 8.42297 24.0997C8.60531 23.9068 8.85682 23.7941 9.12219 23.7866C9.25358 23.7829 9.38442 23.8051 9.50723 23.852C9.63005 23.8988 9.74243 23.9694 9.83797 24.0597C11.2676 25.4085 13.0631 26.306 15 26.6402C16.9368 26.9744 18.9292 26.7304 20.7282 25.9387C22.5272 25.147 24.053 23.8427 25.115 22.1888C26.1769 20.5349 26.7279 18.6047 26.6992 16.6394C26.6704 14.6741 26.0631 12.7609 24.9532 11.1388C23.8433 9.5167 22.28 8.25763 20.4586 7.51894C18.6372 6.78024 16.6385 6.59468 14.7122 6.98542C12.7859 7.37617 11.0175 8.3259 9.62797 9.71595C9.18672 10.1622 8.77172 10.6009 8.36797 11.0372L10.4067 13.0797C10.5467 13.2196 10.6421 13.3978 10.6807 13.5919C10.7194 13.786 10.6996 13.9872 10.6238 14.17C10.5481 14.3528 10.4198 14.509 10.2552 14.6189C10.0906 14.7288 9.89711 14.7874 9.69922 14.7872H4.69922C4.434 14.7872 4.17965 14.6818 3.99211 14.4943C3.80458 14.3068 3.69922 14.0524 3.69922 13.7872V8.7872C3.69906 8.5893 3.75763 8.39581 3.8675 8.23121C3.97737 8.06662 4.13361 7.93833 4.31643 7.86257C4.49925 7.78682 4.70044 7.76702 4.89453 7.80567C5.08861 7.84432 5.26686 7.93968 5.40672 8.0797L6.94922 9.6247C7.35172 9.18845 7.76672 8.7497 8.20672 8.30595C9.88433 6.62548 12.0228 5.4805 14.3514 5.01592C16.68 4.55134 19.0941 4.78806 21.2882 5.6961C23.4822 6.60415 25.3575 8.14271 26.6768 10.117C27.996 12.0913 28.6999 14.4127 28.6992 16.7872ZM16.6992 9.7872C16.434 9.7872 16.1796 9.89255 15.9921 10.0801C15.8046 10.2676 15.6992 10.522 15.6992 10.7872V16.7872C15.6992 16.9598 15.7438 17.1295 15.8288 17.2798C15.9138 17.4301 16.0362 17.5558 16.1842 17.6447L21.1842 20.6447C21.2968 20.7123 21.4217 20.7571 21.5516 20.7765C21.6815 20.7959 21.814 20.7895 21.9414 20.7577C22.0689 20.7259 22.1888 20.6693 22.2944 20.5911C22.3999 20.513 22.4891 20.4148 22.5567 20.3022C22.6243 20.1896 22.6691 20.0648 22.6885 19.9348C22.7079 19.8049 22.7015 19.6725 22.6697 19.545C22.6379 19.4176 22.5813 19.2976 22.5032 19.1921C22.425 19.0865 22.3268 18.9973 22.2142 18.9297L17.6992 16.2209V10.7872C17.6992 10.522 17.5939 10.2676 17.4063 10.0801C17.2188 9.89255 16.9644 9.7872 16.6992 9.7872Z" fill="black"/>
</svg>
