<svg width="33" height="33" viewBox="0 0 33 33" fill="none" xmlns="http://www.w3.org/2000/svg">
<path d="M18.1992 10.7872V15.9384L22.4705 18.5009C22.6432 18.6003 22.7944 18.7331 22.9152 18.8915C23.036 19.0499 23.1241 19.2309 23.1742 19.4237C23.2243 19.6166 23.2355 19.8175 23.2072 20.0147C23.1788 20.212 23.1114 20.4016 23.0089 20.5725C22.9064 20.7434 22.771 20.8921 22.6103 21.0101C22.4497 21.128 22.2672 21.2128 22.0735 21.2594C21.8798 21.3061 21.6787 21.3136 21.482 21.2817C21.2853 21.2498 21.097 21.1789 20.928 21.0734L15.928 18.0734C15.7058 17.9402 15.5218 17.7517 15.3941 17.5263C15.2664 17.3009 15.1993 17.0462 15.1992 16.7872V10.7872C15.1992 10.3893 15.3573 10.0078 15.6386 9.72649C15.9199 9.44519 16.3014 9.28715 16.6992 9.28715C17.097 9.28715 17.4786 9.44519 17.7599 9.72649C18.0412 10.0078 18.1992 10.3893 18.1992 10.7872ZM16.6992 4.28715C15.0556 4.28292 13.4275 4.6049 11.9092 5.23445C10.3909 5.864 9.0126 6.78859 7.85422 7.95465C7.26797 8.54715 6.72922 9.1259 6.19922 9.70465V8.78715C6.19922 8.38933 6.04118 8.00779 5.75988 7.72649C5.47857 7.44519 5.09704 7.28715 4.69922 7.28715C4.30139 7.28715 3.91986 7.44519 3.63856 7.72649C3.35725 8.00779 3.19922 8.38933 3.19922 8.78715V13.7872C3.19922 14.185 3.35725 14.5665 3.63856 14.8478C3.91986 15.1291 4.30139 15.2872 4.69922 15.2872H9.69922C10.097 15.2872 10.4786 15.1291 10.7599 14.8478C11.0412 14.5665 11.1992 14.185 11.1992 13.7872C11.1992 13.3893 11.0412 13.0078 10.7599 12.7265C10.4786 12.4452 10.097 12.2872 9.69922 12.2872H7.92047C8.57422 11.5372 9.24547 10.8147 9.98172 10.0697C11.3019 8.74907 12.982 7.84684 14.8121 7.47572C16.6421 7.10459 18.541 7.28102 20.2714 7.98296C22.0017 8.68491 23.4868 9.88123 24.5411 11.4224C25.5954 12.9636 26.1721 14.7814 26.1992 16.6485C26.2263 18.5156 25.7025 20.3493 24.6933 21.9204C23.6841 23.4915 22.2343 24.7304 20.525 25.4822C18.8157 26.234 16.9228 26.4654 15.0827 26.1475C13.2427 25.8296 11.5371 24.9764 10.1792 23.6947C9.8898 23.4215 9.50372 23.2745 9.10591 23.286C8.7081 23.2974 8.33114 23.4665 8.05797 23.7559C7.7848 24.0453 7.63778 24.4314 7.64927 24.8292C7.66076 25.227 7.8298 25.604 8.11922 25.8772C9.603 27.2777 11.4071 28.2938 13.374 28.8367C15.3408 29.3795 17.4107 29.4326 19.4028 28.9913C21.3949 28.5501 23.2487 27.6279 24.8024 26.3052C26.3561 24.9826 27.5623 23.2997 28.3159 21.4035C29.0694 19.5074 29.3473 17.4556 29.1254 15.4273C28.9034 13.399 28.1883 11.4559 27.0424 9.76758C25.8966 8.07928 24.3549 6.69714 22.552 5.74184C20.749 4.78653 18.7396 4.2871 16.6992 4.28715Z" fill="black"/>
</svg>
